<?xml version="1.0" encoding="UTF-8"?>
<svg version="1.1" xmlns="http://www.w3.org/2000/svg" width="654" height="671">
<path d="M0 0 C215.82 0 431.64 0 654 0 C654 221.43 654 442.86 654 671 C438.18 671 222.36 671 0 671 C0 449.57 0 228.14 0 0 Z " fill="#FBFBFB" transform="translate(0,0)"/>
<path d="M0 0 C1.23814453 -0.01224609 2.47628906 -0.02449219 3.75195312 -0.03710938 C14.90256662 -0.0546326 25.49015477 0.82035394 35.8125 5.1875 C36.76382812 5.53683594 37.71515625 5.88617188 38.6953125 6.24609375 C52.77826519 11.42115468 64.28692765 17.72289657 75.8125 27.1875 C77.47806069 28.52221462 79.14434128 29.85603387 80.8125 31.1875 C79.21561038 35.06303469 76.72193148 37.55705087 73.79956055 40.52270508 C73.29036072 41.04183472 72.78116089 41.56096436 72.25653076 42.0958252 C70.57632791 43.80515584 68.88850231 45.50667692 67.19921875 47.20703125 C66.02577809 48.3919789 64.85234167 49.57693074 63.6789093 50.7618866 C61.22056004 53.24121911 58.75760713 55.71588315 56.29223633 58.18823242 C53.13099927 61.36046933 49.98875564 64.55084628 46.85055828 67.74585438 C44.43538567 70.19821871 42.00695531 72.6371177 39.57465553 75.07248497 C38.40985019 76.24335211 37.25005931 77.41922968 36.09540367 78.60010719 C34.48192073 80.2476077 32.85067224 81.87522915 31.21362305 83.49926758 C29.82701729 84.89681023 29.82701729 84.89681023 28.41239929 86.32258606 C25.8125 88.1875 25.8125 88.1875 23.12898254 88.03910828 C19.84062237 86.83020871 16.62714921 85.5117228 13.41015625 84.125 C0.88067188 79.60308083 -13.15035842 81.97016726 -24.94140625 87.47265625 C-35.91920021 93.64014926 -44.61189845 103.4557348 -53.46118164 112.26831055 C-54.55132177 113.35052478 -55.6416335 114.43256616 -56.73210144 115.51445007 C-60.27427168 119.03070874 -63.81127617 122.55213823 -67.34765625 126.07421875 C-68.5751709 127.29636283 -69.80268901 128.51850343 -71.03021049 129.74064064 C-76.13947609 134.82833158 -81.24732028 139.91744253 -86.35146427 145.01027203 C-93.61992545 152.26250212 -100.89674754 159.50610364 -108.18551737 166.73792428 C-113.33776385 171.85130344 -118.48023297 176.97438883 -123.61571592 182.10460311 C-126.67088159 185.15614118 -129.7299621 188.2034769 -132.79963875 191.2404232 C-135.68941408 194.09981654 -138.56672208 196.97122001 -141.43550301 199.85167122 C-142.48035506 200.89674144 -143.52937139 201.93767059 -144.5831871 202.97370148 C-160.5404463 218.67654094 -170.10670075 237.55211313 -175.1875 259.1875 C-175.435 260.19039063 -175.6825 261.19328125 -175.9375 262.2265625 C-181.21288129 287.65096956 -175.19790983 315.05403461 -162.1875 337.1875 C-154.41099892 348.94820018 -144.19289224 358.70729935 -134.2578125 368.61816406 C-131.4434274 371.43157465 -128.65110444 374.26569117 -125.859375 377.1015625 C-116.61225187 386.40995338 -107.80373687 394.94202177 -96.1875 401.1875 C-95.14352051 401.765 -94.09954102 402.3425 -93.02392578 402.9375 C-77.64393402 411.25422851 -61.89648082 414.54362641 -44.5625 414.4375 C-43.29148438 414.44523437 -42.02046875 414.45296875 -40.7109375 414.4609375 C-34.16142774 414.44729269 -28.44915808 414.11472345 -22.1875 412.1875 C-20.79306377 411.90956297 -19.39747938 411.63720747 -18 411.375 C5.86991789 406.0523768 23.59084648 390.93699437 40.24536133 374.03588867 C42.39588624 371.85380728 44.55727166 369.68295111 46.72070312 367.51367188 C48.10740247 366.11781471 49.49349297 364.72135237 50.87890625 363.32421875 C51.83670738 362.3600428 51.83670738 362.3600428 52.81385803 361.37638855 C56.02708485 358.1115723 58.96432184 354.78114499 61.8125 351.1875 C63.27484766 349.98512526 64.73824271 348.78391806 66.21347046 347.59738159 C67.89887887 346.11133882 69.27116781 344.54269127 70.70947266 342.81689453 C75.45916547 337.32691313 80.65782244 332.29519736 85.83369064 327.21340561 C88.33066738 324.75912246 90.81780504 322.29496325 93.3056736 319.83145332 C97.91736821 315.26511622 102.53273717 310.70266657 107.16503906 306.15722656 C110.40678198 302.97551412 113.63562294 299.78117364 116.85680008 296.57864761 C118.07282801 295.37421327 119.29333178 294.17427753 120.51871872 292.9793663 C136.94286838 276.95342824 148.84418614 258.17862436 149.25 234.625 C149.27231689 233.83859131 149.29463379 233.05218262 149.31762695 232.24194336 C149.33719401 227.71294922 149.33719401 227.71294922 146.78515625 224.16015625 C146.13417969 223.83917969 145.48320312 223.51820313 144.8125 223.1875 C146.01579715 217.52150389 147.99178231 214.29480309 152.18017578 210.25219727 C152.72666779 209.70497513 153.27315979 209.15775299 153.83621216 208.59394836 C155.63180932 206.80181347 157.44441254 205.02800943 159.2578125 203.25390625 C160.51157762 202.00947403 161.76423781 200.7639277 163.01583862 199.51731873 C166.30271891 196.24947031 169.60433801 192.99692033 172.90930176 189.74737549 C176.28323811 186.42471322 179.64295169 183.08773718 183.00390625 179.75195312 C189.59296346 173.21641637 196.19768708 166.6969602 202.8125 160.1875 C207.87938531 161.87646177 209.42073053 166.62645124 211.8125 171.1875 C216.39092454 180.56451375 220.07935961 190.10666125 222.8125 200.1875 C223.24369141 201.76724609 223.24369141 201.76724609 223.68359375 203.37890625 C226.25718074 213.21764311 226.97394708 222.36163793 226.9375 232.5 C226.94136719 233.56412109 226.94523437 234.62824219 226.94921875 235.72460938 C226.92198878 258.03957282 221.60767666 279.15132114 211.8125 299.1875 C211.44141113 299.94756348 211.07032227 300.70762695 210.68798828 301.49072266 C201.85798501 319.18438868 189.56052977 332.84364648 175.46484375 346.54296875 C173.40615026 348.5536788 171.59402113 350.4666912 169.81640625 352.73828125 C168.03747511 354.91253042 166.32997556 356.52340789 164.20059204 358.33135986 C159.80038337 362.14586732 155.69157048 366.19502332 151.59912109 370.33496094 C150.82064819 371.11810669 150.04217529 371.90125244 149.2401123 372.70812988 C147.56184057 374.39684313 145.88467209 376.0866534 144.20850754 377.77745819 C141.54397839 380.46418365 138.87535316 383.14677668 136.20547485 385.82818604 C128.61850542 393.44857478 121.03550211 401.07286546 113.46337891 408.70800781 C108.81855368 413.39139396 104.165565 418.06657652 99.50819778 422.73749542 C97.74738221 424.50629669 95.98933224 426.27785604 94.23426437 428.05236053 C84.5722302 437.81949651 74.92697617 447.08754029 63.8125 455.1875 C63.2550346 455.59506279 62.6975692 456.00262558 62.12321091 456.42253876 C35.01844748 476.1875 35.01844748 476.1875 24.8125 476.1875 C24.8125 476.8475 24.8125 477.5075 24.8125 478.1875 C16.22093619 481.66101238 7.49589979 484.1722848 -1.5 486.375 C-2.49378662 486.62459473 -3.48757324 486.87418945 -4.51147461 487.13134766 C-20.79312149 491.0104837 -36.85619037 491.47543151 -53.49633789 491.41455078 C-55.68600967 491.41398533 -57.87568183 491.41430583 -60.06535339 491.41543579 C-65.95675477 491.41600509 -71.84807321 491.40431995 -77.73945546 491.39028788 C-83.91601586 491.37770932 -90.09257855 491.37660444 -96.26914978 491.37423706 C-107.94170461 491.3680431 -119.61422157 491.35166072 -131.28675979 491.33153808 C-144.58556762 491.3091139 -157.88437093 491.29816932 -171.18319333 491.28814721 C-198.51798314 491.26729247 -225.85273944 491.23215738 -253.1875 491.1875 C-253.27907891 462.16802174 -253.34970713 433.14855777 -253.39176132 404.12896347 C-253.39676315 400.68997932 -253.40194054 397.25099545 -253.40722656 393.81201172 C-253.4082758 393.12747516 -253.40932505 392.44293859 -253.41040608 391.7376585 C-253.42773253 380.70576668 -253.45922653 369.67395965 -253.49611118 358.64211786 C-253.53373825 347.29215879 -253.55548269 335.94226195 -253.56385398 324.59223652 C-253.56903602 318.2298332 -253.58108154 311.86762113 -253.61042023 305.50527954 C-253.63789726 299.49705556 -253.64588085 293.48909865 -253.63993073 287.48081779 C-253.64101671 285.29458087 -253.64877566 283.10833349 -253.6643219 280.92215157 C-253.79491487 261.5824388 -252.10307442 242.39380817 -245.1875 224.1875 C-244.08113738 220.94510479 -243.01066041 217.6910098 -241.9375 214.4375 C-241.41202171 212.85918732 -240.88602704 211.28104641 -240.359375 209.703125 C-239.97265625 208.54296875 -239.5859375 207.3828125 -239.1875 206.1875 C-238.5275 206.1875 -237.8675 206.1875 -237.1875 206.1875 C-237.09339844 205.51460937 -236.99929687 204.84171875 -236.90234375 204.1484375 C-229.55074532 173.6975544 -200.07296615 148.59987731 -178.88735509 127.45144701 C-176.13369062 124.70090696 -173.38468086 121.94573707 -170.63558191 119.19063509 C-164.14478296 112.68587317 -157.6463294 106.18883173 -151.14282227 99.69677734 C-144.46849998 93.03395016 -137.80709165 86.35840979 -131.15190989 79.67646849 C-125.39996116 73.90227314 -119.64018458 68.13596827 -113.87417692 62.37581193 C-110.4467311 58.95171283 -107.02214284 55.52488502 -103.60505867 52.09044266 C-100.39227052 48.86204159 -97.16969533 45.64372289 -93.93977547 42.4324646 C-92.76662069 41.26295517 -91.59675078 40.09013826 -90.43072128 38.91352463 C-80.45970078 28.85903549 -69.63825876 20.23046478 -57.1875 13.375 C-56.52580811 13.00810059 -55.86411621 12.64120117 -55.18237305 12.26318359 C-37.85661397 2.92104497 -19.41961646 0.00995367 0 0 Z " fill="#5A5EEE" transform="translate(253.1875,179.8125)"/>
<path d="M0 0 C2.64125452 0.0251579 5.28253259 0.0479576 7.92382812 0.06835938 C14.30391192 0.12265763 20.68309037 0.20567022 27.0625 0.3125 C27.13215599 10.34422633 27.18539034 20.37589467 27.21793652 30.40781403 C27.2335608 35.06655957 27.25473966 39.72513906 27.28881836 44.38378906 C27.32152763 48.88363771 27.33937735 53.38332712 27.34713173 57.88328552 C27.35265453 59.59600835 27.3634391 61.30872293 27.37969017 63.02137756 C27.40161868 65.42915358 27.40446057 67.83628007 27.40307617 70.24414062 C27.41925491 71.29503372 27.41925491 71.29503372 27.4357605 72.36715698 C27.40294055 77.67773635 26.08397036 81.48641194 24.0625 86.3125 C23.38338392 88.28742949 22.71556839 90.26630476 22.0625 92.25 C21.54429687 93.80267578 21.54429687 93.80267578 21.015625 95.38671875 C20.46070937 97.09012778 19.92127765 98.79902822 19.421875 100.51953125 C17.02379155 108.55925973 12.95070891 115.91546151 9.0625 123.3125 C8.71944824 123.9720166 8.37639648 124.6315332 8.02294922 125.31103516 C-8.07650014 156.01711761 -32.61359806 183.43683507 -60.9375 203.3125 C-61.55367187 203.74723633 -62.16984375 204.18197266 -62.8046875 204.62988281 C-72.34681898 211.3125 -72.34681898 211.3125 -74.9375 211.3125 C-74.90269531 212.27027344 -74.86789062 213.22804687 -74.83203125 214.21484375 C-74.09671529 243.60135408 -84.59478343 270.20278319 -104.51635742 291.88964844 C-111.75262782 299.47085638 -123.98936212 311.49430934 -134.59375 312.5859375 C-136.9375 312.3125 -136.9375 312.3125 -138.9375 310.3125 C-139.22460938 307.92089844 -139.22460938 307.92089844 -139.28125 304.921875 C-139.32318481 303.27964966 -139.32318481 303.27964966 -139.3659668 301.60424805 C-139.38957275 300.43547119 -139.41317871 299.26669434 -139.4375 298.0625 C-139.97466295 280.83250324 -142.92107941 265.79637313 -147.9375 249.3125 C-149.01386719 249.28671875 -150.09023438 249.2609375 -151.19921875 249.234375 C-167.37835433 248.6779497 -182.87437921 244.89146504 -195.03125 233.45703125 C-208.82540632 217.93860539 -210.81414829 200.24163788 -209.9375 180.3125 C-213.08199224 179.66002353 -216.22830756 179.01677425 -219.375 178.375 C-220.25349609 178.19259766 -221.13199219 178.01019531 -222.03710938 177.82226562 C-233.48195323 175.49951134 -244.64421701 175.06253025 -256.31274414 174.98657227 C-258.30897412 174.97110868 -260.30494487 174.92926757 -262.30078125 174.88671875 C-264.06869019 174.86484497 -264.06869019 174.86484497 -265.87231445 174.8425293 C-269.53220206 174.20966462 -270.74430916 173.2656313 -272.9375 170.3125 C-273.54265935 162.89929792 -268.30672693 157.8331288 -263.9375 152.3125 C-263.29167969 151.46171875 -262.64585937 150.6109375 -261.98046875 149.734375 C-249.86515828 134.04122336 -235.0503785 122.26821679 -216.9375 114.3125 C-216.06222656 113.91417969 -215.18695313 113.51585938 -214.28515625 113.10546875 C-208.47969695 110.71709027 -202.60448561 109.61207642 -196.4375 108.625 C-195.60839111 108.48876221 -194.77928223 108.35252441 -193.92504883 108.2121582 C-189.42959999 107.52360968 -185.48491561 107.39718327 -180.9375 107.75 C-178.31797621 107.72078465 -178.31797621 107.72078465 -175.9375 106.3125 C-172.6186133 102.39626327 -170.29611352 97.78395542 -167.828125 93.30859375 C-163.50866743 85.56433805 -157.71309094 78.9973733 -151.9375 72.3125 C-151.19113281 71.4359375 -150.44476563 70.559375 -149.67578125 69.65625 C-138.58848282 56.9850518 -126.61161957 45.15987813 -112.9375 35.3125 C-112.37836914 34.90370605 -111.81923828 34.49491211 -111.24316406 34.07373047 C-77.61718763 9.72621114 -41.12538587 -0.69120487 0 0 Z " fill="#207CF6" transform="translate(626.9375,-0.3125)"/>
<path d="M0 0 C0.33 0 0.66 0 1 0 C1.07476562 0.92296875 1.14953125 1.8459375 1.2265625 2.796875 C5.50095511 45.20555465 28.46198907 80.51886216 57.828125 110.03125 C58.73898865 110.94781372 59.64985229 111.86437744 60.58831787 112.80871582 C62.50246337 114.73325715 64.41883797 116.65554913 66.33642578 118.57666016 C68.27633655 120.52095932 70.21136611 122.46991804 72.14208984 124.42333984 C87.19854778 139.71596615 87.19854778 139.71596615 104 153 C104.70495605 153.51143555 105.40991211 154.02287109 106.13623047 154.54980469 C120.26278878 164.71735127 135.47745973 171.63208194 151.88720703 177.27001953 C153.67071307 177.88622973 155.44408322 178.53166126 157.21484375 179.18359375 C168.40140961 183.04258358 180.33233723 184.30338136 192 186 C192 186.33 192 186.66 192 187 C128.64 187 65.28 187 0 187 C0 125.29 0 63.58 0 0 Z " fill="#FBFAFB" transform="translate(0,484)"/>
<path d="M0 0 C0 0.66 0 1.32 0 2 C0.721875 2.061875 1.44375 2.12375 2.1875 2.1875 C6.17517712 3.33949561 7.6072088 4.58172685 10 8 C11.01102604 12.5178017 11.16883707 16.84732165 8.9140625 21 C7.07295149 23.16821195 5.07907158 25.05644819 3 27 C1.89524676 28.11535942 0.79538714 29.23557733 -0.30078125 30.359375 C-5.73493692 35.90965459 -11.21254786 41.34196482 -17.14453125 46.36328125 C-20.16824598 49.03051593 -22.94692797 51.93933865 -25.77734375 54.80859375 C-28.4270144 57.42101068 -31.21172803 59.83302621 -34.03515625 62.25390625 C-36.73378361 64.65209001 -39.24314575 67.21611524 -41.75 69.8125 C-44.37530373 72.36487862 -47.12656674 74.74324345 -49.89013672 77.14404297 C-53.18486527 80.04227561 -56.37257732 83.04992961 -59.5625 86.0625 C-60.96212019 87.37903319 -62.36186278 88.69543627 -63.76171875 90.01171875 C-64.46474121 90.67349121 -65.16776367 91.33526367 -65.89208984 92.01708984 C-73.97134356 99.61724025 -82.06200643 107.19751076 -90.3359375 114.5859375 C-93.80220718 117.72692674 -97.21230847 120.9260191 -100.625 124.125 C-104.94977423 128.17788272 -109.2951118 132.17815697 -113.79296875 136.0390625 C-116.35488569 138.31531437 -118.84345409 140.66193718 -121.33691406 143.01269531 C-127.18281314 148.52338712 -133.08495353 153.82343304 -139.3671875 158.83984375 C-143.21064521 161.99330386 -146.84684458 165.35953804 -150.4921875 168.73828125 C-157.35050824 174.9235892 -157.35050824 174.9235892 -161.1875 175.375 C-164 175 -164 175 -166 173 C-166.5625 170.375 -166.5625 170.375 -166 167 C-164.60142534 164.94748429 -163.00150583 163.23761794 -161.29296875 161.43359375 C-159.11701535 159.12419176 -157.06623422 156.73623454 -155.02758789 154.30566406 C-148.53034201 146.57522987 -141.65085338 139.23882786 -134.69921875 131.91796875 C-131.78604606 128.84641567 -128.93430578 125.72980581 -126.125 122.5625 C-122.42974274 118.40886159 -118.53857192 114.49376191 -114.5546875 110.6171875 C-112.55116381 108.56464794 -110.68452966 106.4943235 -108.8203125 104.3203125 C-103.66384119 98.37289447 -97.98691466 92.94233384 -92.3828125 87.421875 C-91.53460938 86.58140625 -90.68640625 85.7409375 -89.8125 84.875 C-89.05582031 84.12992187 -88.29914063 83.38484375 -87.51953125 82.6171875 C-85.50029877 80.5196902 -83.59140297 78.39401691 -81.69140625 76.19140625 C-78.01530296 71.95792795 -74.11220828 68.00144948 -70.125 64.0625 C-69.39684082 63.33812744 -68.66868164 62.61375488 -67.91845703 61.86743164 C-64.83943049 58.80457576 -61.75441677 55.74777689 -58.66992188 52.69042969 C-56.40284542 50.44155883 -54.13887034 48.18959762 -51.875 45.9375 C-51.18937988 45.26017822 -50.50375977 44.58285645 -49.79736328 43.88500977 C-45.89978703 40.00701212 -42.21679861 36.01337211 -38.62579346 31.85064697 C-36.34049386 29.24928161 -33.92576707 26.83131969 -31.4609375 24.3984375 C-30.97219147 23.91347809 -30.48344543 23.42851868 -29.97988892 22.92886353 C-28.44740133 21.40838368 -26.91166012 19.89126198 -25.375 18.375 C-23.33813796 16.36498925 -21.30480225 14.35150214 -19.2734375 12.3359375 C-18.38060059 11.45470215 -17.48776367 10.5734668 -16.56787109 9.66552734 C-14.69675698 7.72325468 -13.03092116 5.82610356 -11.35791016 3.72900391 C-7.84884334 -0.33232855 -5.12025217 -0.11378338 0 0 Z " fill="#168EFD" transform="translate(433,263)"/>
<path d="M0 0 C3.38341921 1.65732526 5.41158814 4.07900752 7.4375 7.25 C8.31279106 11.52920073 8.36021772 14.81381767 7 19 C5.37464905 21.19343567 5.37464905 21.19343567 3.24243164 23.47583008 C2.0182402 24.78796982 2.0182402 24.78796982 0.76931763 26.12661743 C-4.45110337 31.54321051 -9.74193883 36.88503541 -15.06640625 42.19921875 C-16.31247759 43.44596571 -17.55840062 44.6928609 -18.80418396 45.93989563 C-21.39868034 48.53585574 -23.99494944 51.13002579 -26.5925293 53.72290039 C-29.90301851 57.02768116 -33.2089804 60.33694875 -36.51362705 63.64757061 C-39.07960069 66.21717563 -41.64797328 68.78437226 -44.21705437 71.35087013 C-45.43647339 72.56962763 -46.65516548 73.78911296 -47.8730793 75.00937462 C-59.35921113 86.51280051 -59.35921113 86.51280051 -65.33543396 91.55561829 C-68.56298239 94.35623527 -71.50997126 97.45061585 -74.5 100.5 C-78.94946567 104.99772809 -83.40927094 109.38018345 -88.24609375 113.46484375 C-90.25833482 115.22611488 -92.12371986 117.09479839 -94 119 C-97.10713922 122.14920881 -100.32490304 125.07976967 -103.6796875 127.9609375 C-106.04090719 130.03594874 -108.34037842 132.16572406 -110.63745117 134.31103516 C-116.12062557 139.43058263 -121.69522746 144.34133509 -127.56640625 149.01953125 C-129.74163981 150.7897454 -131.76924679 152.64443517 -133.8125 154.5625 C-136.24454305 156.66715264 -136.96480764 156.99402394 -140.3125 157.5625 C-143 157 -143 157 -145 154 C-145.484375 151.74609375 -145.484375 151.74609375 -145 149 C-143.33818884 146.45623519 -141.31095599 144.28767213 -139.25 142.0625 C-138.051484 140.72710016 -136.8535812 139.39114975 -135.65625 138.0546875 C-135.04523438 137.38018555 -134.43421875 136.70568359 -133.8046875 136.01074219 C-131.06044997 132.95317451 -128.40775307 129.82014532 -125.75 126.6875 C-120.92548352 121.0396872 -115.99529953 115.49756913 -111 110 C-109.54110676 108.37550266 -108.08278358 106.7504932 -106.625 105.125 C-103.23222809 101.35261725 -99.80961124 97.60918892 -96.375 93.875 C-92.81746901 90.00632178 -89.31710425 86.09665875 -85.875 82.125 C-82.59147545 78.40367217 -79.21144055 74.77002978 -75.84375 71.125 C-73.72812797 68.82022177 -71.6647191 66.47532514 -69.61328125 64.11328125 C-66.06685788 60.04518296 -62.3953446 56.10821668 -58.6875 52.1875 C-51.56871235 44.62554672 -44.49814727 37.03006352 -37.6875 29.1875 C-33.45246214 24.33835891 -29.03232578 19.67330062 -24.60546875 15 C-20.77923407 10.94403281 -17.07037803 6.81883085 -13.46289062 2.56640625 C-9.93094318 -1.21546538 -4.80649456 -0.65610125 0 0 Z " fill="#168DFD" transform="translate(397,231)"/>
<path d="M0 0 C7.26812595 5.0698071 13.33403942 11.41893937 16 20 C17.64787113 30.66890924 16.51750025 41.49398383 10.26953125 50.4921875 C5.24180628 56.6137688 -1.04772094 61.54772209 -9 63 C-20.88615949 64.05743986 -29.20301622 62.65353252 -39.1171875 55.46484375 C-45.38305185 49.99229699 -48.73916811 42.23487036 -49.4453125 34.01953125 C-49.9540813 23.10166269 -47.90258506 15.1286677 -40.8125 6.6875 C-29.75098797 -4.92161163 -14.37324658 -7.78638541 0 0 Z " fill="#F9FAFB" transform="translate(573,72)"/>
<path d="M0 0 C5.06688531 1.68896177 6.60823053 6.43895124 9 11 C13.58072004 20.38171515 17.24539266 29.92092983 20 40 C20.31066406 41.06476563 20.62132812 42.12953125 20.94140625 43.2265625 C22.51338378 48.90823913 23.44072947 53.2370821 22 59 C19.87971346 55.39002938 19.25654652 51.77860756 18.5 47.6875 C17.04426336 39.86291557 14.97800824 32.64374979 11.9375 25.3125 C8.72656081 17.54310516 8.72656081 17.54310516 8 14 C7.34 14 6.68 14 6 14 C5.01 11.03 4.02 8.06 3 5 C0.13005607 4.75404889 -1.47365853 4.64026094 -3.89355469 6.29418945 C-4.48040039 6.89448975 -5.06724609 7.49479004 -5.671875 8.11328125 C-6.66223755 9.11234497 -6.66223755 9.11234497 -7.67260742 10.1315918 C-8.70091675 11.21114136 -8.70091675 11.21114136 -9.75 12.3125 C-10.45938721 13.03928955 -11.16877441 13.7660791 -11.8996582 14.51489258 C-16.57982001 19.36199282 -20.98262812 24.33598545 -25.10546875 29.66796875 C-27.25174377 32.30987841 -29.49666037 34.69332208 -32 37 C-32.66 37 -33.32 37 -34 37 C-34.4021875 37.8971875 -34.4021875 37.8971875 -34.8125 38.8125 C-35.99917406 40.99847854 -37.09599113 42.41332594 -39 44 C-39.66 44 -40.32 44 -41 44 C-41.2475 44.57234375 -41.495 45.1446875 -41.75 45.734375 C-43.19316199 48.35010611 -44.88216222 50.14773456 -47 52.25 C-47.70125 52.95640625 -48.4025 53.6628125 -49.125 54.390625 C-51 56 -51 56 -53 56 C-52.85852539 56.53512207 -52.71705078 57.07024414 -52.57128906 57.62158203 C-51.13948087 63.44821097 -50.69334424 68.88837459 -50.75 74.875 C-50.74226563 75.71546875 -50.73453125 76.5559375 -50.7265625 77.421875 C-50.72914063 78.22882813 -50.73171875 79.03578125 -50.734375 79.8671875 C-50.73663086 80.59019043 -50.73888672 81.31319336 -50.74121094 82.05810547 C-51 84 -51 84 -53 87 C-53.0093457 86.37955811 -53.01869141 85.75911621 -53.02832031 85.11987305 C-53.08200995 82.30827323 -53.16565646 79.4983402 -53.25 76.6875 C-53.26417969 75.71103516 -53.27835937 74.73457031 -53.29296875 73.72851562 C-53.32519531 72.79072266 -53.35742188 71.85292969 -53.390625 70.88671875 C-53.41157227 70.02264404 -53.43251953 69.15856934 -53.45410156 68.26831055 C-53.81511196 65.81664529 -53.81511196 65.81664529 -56.03808594 64.19458008 C-57.0092334 63.60326294 -57.0092334 63.60326294 -58 63 C-56.79670285 57.33400389 -54.82071769 54.10730309 -50.63232422 50.06469727 C-49.81258621 49.24386406 -49.81258621 49.24386406 -48.97628784 48.40644836 C-47.18069068 46.61431347 -45.36808746 44.84050943 -43.5546875 43.06640625 C-42.30092238 41.82197403 -41.04826219 40.5764277 -39.79666138 39.32981873 C-36.50978109 36.06197031 -33.20816199 32.80942033 -29.90319824 29.55987549 C-26.52926189 26.23721322 -23.16954831 22.90023718 -19.80859375 19.56445312 C-13.21953654 13.02891637 -6.61481292 6.5094602 0 0 Z " fill="#315BED" transform="translate(456,340)"/>
<path d="M0 0 C0.99 0.495 0.99 0.495 2 1 C2 1.66 2 2.32 2 3 C1.41734375 3.20753906 0.8346875 3.41507813 0.234375 3.62890625 C-8.11473692 6.76638699 -16.65248804 10.61863464 -23 17 C-23.7346347 17.42774719 -24.46926941 17.85549438 -25.22616577 18.29620361 C-39.89523573 27.30651437 -51.74435725 41.47732644 -63.81435347 53.61156559 C-66.60399066 56.41386754 -69.39944912 59.21035132 -72.19424438 62.00750732 C-77.46417453 67.28360667 -82.72899418 72.5647741 -87.99190867 77.84787059 C-93.99293335 83.8713979 -99.99976767 89.88911781 -106.00705028 95.90640306 C-118.34442101 108.26457224 -130.67462776 120.62986436 -143 133 C-143 128.98955006 -141.71698184 128.33787787 -138.91818237 125.53050232 C-138.01285767 124.61527298 -137.10753296 123.70004364 -136.17477417 122.75708008 C-135.15817382 121.74471858 -134.14141425 120.73251695 -133.12451172 119.72045898 C-132.06287899 118.65312585 -131.00187908 117.58516297 -129.94146729 116.51661682 C-127.05106297 113.60820786 -124.15110274 110.70950559 -121.24884176 107.81293368 C-118.82142497 105.38860505 -116.39860991 102.9597038 -113.97575963 100.5308128 C-108.24800568 94.7889849 -102.51244816 89.05503497 -96.77197266 83.32592773 C-90.87445944 77.43983705 -84.98972762 71.54119413 -79.11139476 65.63595337 C-74.05186275 60.55414082 -68.9844683 55.48026196 -63.910864 50.41249901 C-60.88675601 47.39173991 -57.86552169 44.36825317 -54.85177231 41.3371563 C-52.00606 38.47578471 -49.15050815 35.62458527 -46.28766632 32.78035545 C-45.24836889 31.74469529 -44.21233439 30.70574655 -43.18017197 29.66297531 C-33.39630298 19.78641119 -22.57524811 11.55013379 -10.3125 4.9375 C-9.63767578 4.56173828 -8.96285156 4.18597656 -8.26757812 3.79882812 C-5.54082641 2.29600072 -2.95991172 0.98663724 0 0 Z " fill="#4C54F2" transform="translate(207,188)"/>
<path d="M0 0 C0.66 0 1.32 0 2 0 C2.02747734 2.60424116 2.04706373 5.20818042 2.0625 7.8125 C2.07087891 8.53115234 2.07925781 9.24980469 2.08789062 9.99023438 C2.18172335 31.29026352 -3.68690075 51.94991762 -13 71 C-13.37108887 71.76006348 -13.74217773 72.52012695 -14.12451172 73.30322266 C-23.94701381 92.98566966 -38.30707364 107.82372409 -54 123 C-54 120 -54 120 -52.47119141 118.16235352 C-51.77171387 117.49131592 -51.07223633 116.82027832 -50.3515625 116.12890625 C-49.59359375 115.38962891 -48.835625 114.65035156 -48.0546875 113.88867188 C-46.85199219 112.7372168 -46.85199219 112.7372168 -45.625 111.5625 C-44.05012124 110.04770184 -42.47962069 108.52833537 -40.9140625 107.00390625 C-39.8614624 105.99565796 -39.8614624 105.99565796 -38.78759766 104.96704102 C-37.04452637 103.04899603 -36.12190346 101.30945352 -35 99 C-34.01 98.505 -34.01 98.505 -33 98 C-32.07820151 96.39538781 -31.1619111 94.78736389 -30.2734375 93.1640625 C-28.79329866 90.64873454 -27.13639844 88.31022314 -25.4375 85.9375 C-22.91388351 82.39035665 -20.7758757 78.96960451 -19 75 C-18.34 75 -17.68 75 -17 75 C-16.814375 73.9171875 -16.814375 73.9171875 -16.625 72.8125 C-16.0095069 70.04278106 -15.11555626 67.6029646 -14 65 C-13.34 65 -12.68 65 -12 65 C-11.87496094 64.29230469 -11.74992187 63.58460938 -11.62109375 62.85546875 C-10.97785511 59.8981892 -10.07158314 57.16458782 -9.0625 54.3125 C-6.46827516 46.6614166 -5.04249344 38.9924497 -4 31 C-3.34 31 -2.68 31 -2 31 C-2.01160156 30.00097656 -2.02320313 29.00195312 -2.03515625 27.97265625 C-2.04417969 26.68230469 -2.05320312 25.39195312 -2.0625 24.0625 C-2.07410156 22.77472656 -2.08570313 21.48695313 -2.09765625 20.16015625 C-2 17 -2 17 -1 16 C-0.76321284 13.30764224 -0.57801975 10.63501844 -0.4375 7.9375 C-0.37272461 6.79958008 -0.37272461 6.79958008 -0.30664062 5.63867188 C-0.20026367 3.75934562 -0.09960066 1.87969756 0 0 Z " fill="#2C64ED" transform="translate(478,408)"/>
<path d="M0 0 C0.66 0.33 1.32 0.66 2 1 C1.19175781 1.72445312 0.38351562 2.44890625 -0.44921875 3.1953125 C-1.52883737 4.17166325 -2.60825365 5.14823777 -3.6875 6.125 C-4.21794922 6.599375 -4.74839844 7.07375 -5.29492188 7.5625 C-9.59120593 11.4634205 -13.49527263 15.49212105 -16.5 20.5 C-18 23 -18 23 -20.375 25.6875 C-23.7810756 29.63192189 -25.81960372 34.30518929 -28 39 C-27.34 39 -26.68 39 -26 39 C-26 39.99 -26 40.98 -26 42 C-24.8447583 41.99476318 -23.6895166 41.98952637 -22.49926758 41.98413086 C-18.20353982 41.9659985 -13.90781542 41.95453788 -9.61206055 41.94506836 C-7.75463288 41.94004697 -5.89720915 41.93322859 -4.03979492 41.92456055 C-1.36636379 41.91239883 1.30701496 41.90674967 3.98046875 41.90234375 C4.80773972 41.89718246 5.63501068 41.89202118 6.48735046 41.88670349 C10.4622534 41.8863188 14.11956833 42.01019881 18 43 C17.67 43.99 17.34 44.98 17 46 C18.32 46.33 19.64 46.66 21 47 C19.865625 46.855625 18.73125 46.71125 17.5625 46.5625 C16.04241402 46.36903451 14.52136853 46.18310676 13 46 C11.73671875 45.82984375 10.4734375 45.6596875 9.171875 45.484375 C5.01051407 45.02162034 0.88489476 44.89656509 -3.30078125 44.82421875 C-4.60724609 44.80037109 -5.91371094 44.77652344 -7.25976562 44.75195312 C-9.29837978 44.7166642 -11.33635922 44.68734468 -13.37524414 44.67407227 C-15.37147412 44.65860868 -17.36744487 44.61676757 -19.36328125 44.57421875 C-21.13119019 44.55234497 -21.13119019 44.55234497 -22.93481445 44.5300293 C-26.59470206 43.89716462 -27.80680916 42.9531313 -30 40 C-30.60515935 32.58679792 -25.36922693 27.5206288 -21 22 C-20.35417969 21.14921875 -19.70835937 20.2984375 -19.04296875 19.421875 C-13.55961297 12.31919827 -7.51038482 5.00692321 0 0 Z " fill="#1E5DF0" transform="translate(384,130)"/>
<path d="M0 0 C0.99 0.495 0.99 0.495 2 1 C-1.16473447 4.31302792 -4.34867248 7.60586524 -7.55200195 10.8815918 C-8.63888861 11.99865623 -9.72033011 13.12104569 -10.79614258 14.2487793 C-12.34356724 15.86897359 -13.90956323 17.4690097 -15.48046875 19.06640625 C-15.95775925 19.57466446 -16.43504974 20.08292267 -16.92680359 20.60658264 C-18.32104492 22.00219727 -18.32104492 22.00219727 -21 24 C-25.43707084 23.7806021 -29.35512219 21.68210264 -33.40234375 19.9375 C-46.16938648 15.32984548 -60.04665552 18.02448981 -72.10546875 23.37890625 C-74.4381925 24.53375256 -76.73140604 25.7245693 -79 27 C-77.88809524 23.66428571 -77.53679327 23.41582921 -74.625 21.8125 C-74.01914063 21.46832031 -73.41328125 21.12414062 -72.7890625 20.76953125 C-71 20 -71 20 -68 20 C-68 19.34 -68 18.68 -68 18 C-66.92878906 17.79503906 -65.85757813 17.59007812 -64.75390625 17.37890625 C-63.35673149 17.10697291 -61.95959819 16.83482648 -60.5625 16.5625 C-59.85544922 16.42779297 -59.14839844 16.29308594 -58.41992188 16.15429688 C-54.91570736 15.71593102 -54.91570736 15.71593102 -52 14 C-50.39836084 13.90080923 -48.79220082 13.87030102 -47.1875 13.875 C-46.31480469 13.87242187 -45.44210938 13.86984375 -44.54296875 13.8671875 C-42.18586574 13.99029273 -40.25815875 14.35026821 -38 15 C-37.29359375 15.17660156 -36.5871875 15.35320312 -35.859375 15.53515625 C-33.90625 16.0234375 -31.953125 16.51171875 -30 17 C-30 17.66 -30 18.32 -30 19 C-28.02 19.33 -26.04 19.66 -24 20 C-24 20.66 -24 21.32 -24 22 C-20.23321888 19.91705452 -17.37439031 17.61077657 -14.35546875 14.55078125 C-13.09379883 13.27944336 -13.09379883 13.27944336 -11.80664062 11.98242188 C-10.51016602 10.66081055 -10.51016602 10.66081055 -9.1875 9.3125 C-7.86202148 7.97348633 -7.86202148 7.97348633 -6.50976562 6.60742188 C-4.33525271 4.40940071 -2.16555573 2.2068407 0 0 Z " fill="#3D6CF2" transform="translate(300,244)"/>
<path d="M0 0 C3.19286818 3.08987243 6.18110646 6.3046652 9.13061523 9.62841797 C13.59529813 14.60135453 18.23193796 19.36166774 22.97265625 24.0703125 C23.78117538 24.87741669 24.58969452 25.68452087 25.42271423 26.51608276 C27.96693935 29.05477873 30.51464586 31.58994672 33.0625 34.125 C34.80426958 35.8617454 36.54580806 37.5987226 38.28710938 39.3359375 C42.52207672 43.55997002 46.75989616 47.78112388 51 52 C50.34 52.66 49.68 53.32 49 54 C48.67 53.01 48.34 52.02 48 51 C46.67881359 50.30957355 45.34327311 49.64640513 44 49 C42.64245622 47.77740093 41.33152047 46.50175289 40.0625 45.1875 C39.36125 44.46820312 38.66 43.74890625 37.9375 43.0078125 C37.298125 42.34523438 36.65875 41.68265625 36 41 C35.195625 40.195625 34.39125 39.39125 33.5625 38.5625 C26.5 31.5 26.5 31.5 24.16015625 29.15234375 C22.88695595 27.88374815 21.60617815 26.6225495 20.30859375 25.37890625 C19.17150248 24.28716905 18.07928542 23.14891673 17 22 C17 21.34 17 20.68 17 20 C16.14921875 19.63455078 16.14921875 19.63455078 15.28125 19.26171875 C8.53875282 15.53256363 3.23541078 8.89283165 0 2 C0 1.34 0 0.68 0 0 Z " fill="#704AF2" transform="translate(92,520)"/>
<path d="M0 0 C3.67926106 3.23774974 5.76154851 6.90136892 7.875 11.25 C8.22014648 11.95382812 8.56529297 12.65765625 8.92089844 13.3828125 C23.86365689 44.457115 23.86365689 44.457115 21 59 C18.87971346 55.39002938 18.25654652 51.77860756 17.5 47.6875 C16.04426336 39.86291557 13.97800824 32.64374979 10.9375 25.3125 C7.72656081 17.54310516 7.72656081 17.54310516 7 14 C6.34 14 5.68 14 5 14 C4.82984375 13.37351562 4.6596875 12.74703125 4.484375 12.1015625 C4.24203125 11.28429687 3.9996875 10.46703125 3.75 9.625 C3.51796875 8.81289063 3.2859375 8.00078125 3.046875 7.1640625 C1.7785108 4.54214546 0.67576692 4.00617682 -2 3 C-1.34 2.01 -0.68 1.02 0 0 Z " fill="#366DF1" transform="translate(457,340)"/>
<path d="M0 0 C0 3.8508127 -1.51079844 4.86434695 -4.12498474 7.49824524 C-4.73278275 8.09525742 -5.34058075 8.69226959 -5.96679688 9.30737305 C-6.60077896 9.94179321 -7.23476105 10.57621338 -7.88795471 11.2298584 C-9.99118888 13.33099783 -12.10485993 15.42130464 -14.21875 17.51171875 C-15.67671786 18.96409312 -17.13402601 20.41713001 -18.59069824 21.87080383 C-22.43106397 25.69970146 -26.28035295 29.51950606 -30.13153076 33.33752441 C-34.05793023 37.23326548 -37.97587716 41.13748645 -41.89453125 45.04101562 C-49.58807687 52.70236241 -57.29107014 60.3541354 -65 68 C-65.66 67.67 -66.32 67.34 -67 67 C-65.4883305 63.22082625 -65.4883305 63.22082625 -63.30023193 62.23135376 C-59.97844735 60.45314528 -57.56868678 57.82965125 -54.94628906 55.17333984 C-54.35073715 54.57807999 -53.75518524 53.98282013 -53.1415863 53.36952209 C-51.17815357 51.40469823 -49.22189627 49.43288961 -47.265625 47.4609375 C-45.9041436 46.09572521 -44.54221939 44.73095439 -43.17987061 43.36660767 C-39.59816176 39.77726841 -36.0225001 36.1819632 -32.44805908 32.58538818 C-28.79842879 28.91528681 -25.14311908 25.25085171 -21.48828125 21.5859375 C-14.31994671 14.39616348 -7.157987 7.20007484 0 0 Z " fill="#6863F6" transform="translate(127,257)"/>
<path d="M0 0 C19.06502768 0.68089385 37.70841644 12.26399534 52 24 C53.66556069 25.33471462 55.33184128 26.66853387 57 28 C56.34 29.32 55.68 30.64 55 32 C54.34 31.34 53.68 30.68 53 30 C53 29.34 53 28.68 53 28 C52.01 27.34 51.02 26.68 50 26 C49.01 25.34 48.02 24.68 47 24 C47 23.34 47 22.68 47 22 C46.01 22 45.02 22 44 22 C43.34 21.29875 42.68 20.5975 42 19.875 C33.31052794 10.72002051 18.11315428 6.16576147 6 4 C4.989375 3.79375 3.97875 3.5875 2.9375 3.375 C2.298125 3.25125 1.65875 3.1275 1 3 C0.67 2.01 0.34 1.02 0 0 Z " fill="#2D76F6" transform="translate(277,183)"/>
<path d="M0 0 C1.71549071 2.57323607 2.6402706 4.52236607 3.6875 7.375 C5.79386539 12.80385872 8.53238136 17.77183894 11.4140625 22.82421875 C13 26 13 26 14.0234375 29.83203125 C14.50683594 31.40017578 14.50683594 31.40017578 15 33 C15.99 33.33 16.98 33.66 18 34 C19.1875 37.0625 19.1875 37.0625 20 40 C20.66 40 21.32 40 22 40 C26 45.41176471 26 45.41176471 26 48 C26.66 48.33 27.32 48.66 28 49 C27.01 49 26.02 49 25 49 C23.3038724 47.18446991 21.84768377 45.42385769 20.375 43.4375 C19.93768555 42.85613281 19.50037109 42.27476562 19.04980469 41.67578125 C-1.60874032 13.67429271 -1.60874032 13.67429271 0 0 Z " fill="#6E3BEE" transform="translate(13,525)"/>
<path d="M0 0 C0.33 0 0.66 0 1 0 C2.20484722 5.63526965 2.1129643 11.14536115 2.0625 16.875 C2.05798828 17.84953125 2.05347656 18.8240625 2.04882812 19.828125 C2.03710906 22.21881434 2.02070219 24.6093744 2 27 C5.86763446 28.87543354 5.86763446 28.87543354 10 28 C10 27.34 10 26.68 10 26 C10.78375 25.9175 11.5675 25.835 12.375 25.75 C13.24125 25.5025 14.1075 25.255 15 25 C15.6837045 23.67532254 16.34964186 22.34136367 17 21 C18.64363134 20.27840576 20.31050386 19.60648579 22 19 C22.33 18.34 22.66 17.68 23 17 C24.97888961 16.27306096 26.97954558 15.60183749 29 15 C29 15.66 29 16.32 29 17 C26.86632306 18.69315656 24.73623145 20.26540739 22.5 21.8125 C21.53912476 22.48418213 21.53912476 22.48418213 20.55883789 23.16943359 C18.71133359 24.45438978 16.85643111 25.72799121 15 27 C13.74509766 27.87591797 13.74509766 27.87591797 12.46484375 28.76953125 C9.68495221 30.62814852 7.45634306 31.93055649 4.125 32.4375 C2 32 2 32 0 30 C-0.22705078 27.01904297 -0.22705078 27.01904297 -0.1953125 23.2421875 C-0.1924826 22.57913605 -0.18965271 21.91608459 -0.18673706 21.23294067 C-0.17553435 19.11344417 -0.15043051 16.99436896 -0.125 14.875 C-0.11497028 13.43880818 -0.10584441 12.00260975 -0.09765625 10.56640625 C-0.075595 7.04413372 -0.04106494 3.52210797 0 0 Z " fill="#1E63F0" transform="translate(488,280)"/>
<path d="M0 0 C0.33 0 0.66 0 1 0 C1.01458252 0.70906494 1.02916504 1.41812988 1.04418945 2.14868164 C1.41636944 18.37073154 2.10652752 33.50823251 7.546875 48.94921875 C8.06768668 51.30634057 7.75734176 52.7330919 7 55 C3.18581788 48.00733278 0.47664631 41.1119822 1 33 C0.34 32.67 -0.32 32.34 -1 32 C-0.505 30.515 -0.505 30.515 0 29 C-0.14179687 28.3090625 -0.28359375 27.618125 -0.4296875 26.90625 C-1.24204588 22.76656075 -1.14433156 18.70783586 -1.125 14.5 C-1.12886719 13.65824219 -1.13273437 12.81648438 -1.13671875 11.94921875 C-1.1302433 7.83731013 -1.03531987 4.00981028 0 0 Z " fill="#6E4AF2" transform="translate(74,447)"/>
<path d="M0 0 C5.46264314 -0.02476266 10.92525343 -0.04288974 16.38793945 -0.05493164 C18.24536712 -0.05995303 20.10279085 -0.06677141 21.96020508 -0.07543945 C24.63363621 -0.08760117 27.30701496 -0.09325033 29.98046875 -0.09765625 C30.80773972 -0.10281754 31.63501068 -0.10797882 32.48735046 -0.11329651 C36.4622534 -0.1136812 40.11956833 0.01019881 44 1 C43.67 1.99 43.34 2.98 43 4 C44.32 4.33 45.64 4.66 47 5 C45.865625 4.855625 44.73125 4.71125 43.5625 4.5625 C42.04241402 4.36903451 40.52136853 4.18310676 39 4 C37.1128125 3.7525 37.1128125 3.7525 35.1875 3.5 C28.29612048 2.73871403 21.36282398 2.63798498 14.4375 2.4375 C13.03319297 2.39420824 11.62889594 2.35059096 10.22460938 2.30664062 C6.81649049 2.20123489 3.4083068 2.09911018 0 2 C0 1.34 0 0.68 0 0 Z " fill="#2F69EF" transform="translate(358,172)"/>
<path d="M0 0 C0.66 0.33 1.32 0.66 2 1 C2 1.66 2 2.32 2 3 C1.41734375 3.20753906 0.8346875 3.41507813 0.234375 3.62890625 C-7.99067842 6.71976752 -16.88652606 10.51713186 -23 17 C-24.65848177 18.01351664 -26.32665961 19.01120795 -28 20 C-30.35899956 21.63315354 -32.6773827 23.31496392 -35 25 C-35 24.01 -35 23.02 -35 22 C-33.08709823 20.15168173 -31.22302651 18.55354362 -29.125 16.9375 C-28.51164795 16.45941895 -27.8982959 15.98133789 -27.26635742 15.48876953 C-19.15543082 9.36149893 -9.69332606 3.23110869 0 0 Z " fill="#486AF4" transform="translate(207,188)"/>
<path d="M0 0 C2.87580207 1.29678592 4.86328405 2.641881 7.0234375 4.93359375 C7.84328125 5.7834082 7.84328125 5.7834082 8.6796875 6.65039062 C9.80424684 7.835842 10.9266683 9.02332533 12.046875 10.21289062 C15.46401479 13.74634152 18.47730434 15.92112404 23 18 C24.33333333 19.66666667 25.66666667 21.33333333 27 23 C28.96466413 24.06775224 30.96855359 25.06553465 33 26 C35.04640414 27.27435167 37.01530607 28.62961609 39 30 C37.02 30.99 37.02 30.99 35 32 C22.58919322 22.43259131 10.74669984 12.44135344 0 1 C0 0.67 0 0.34 0 0 Z " fill="#6641E5" transform="translate(73,609)"/>
<path d="M0 0 C0.268125 0.639375 0.53625 1.27875 0.8125 1.9375 C1.88667752 4.33131686 1.88667752 4.33131686 5 5 C6.2109375 7.328125 6.2109375 7.328125 7.375 10.25 C11.9665932 20.74700509 20.99944126 25.26289323 31 30 C28.3106152 31.05564637 27.22600689 31.08703371 24.484375 30.03125 C13.23490913 23.73154911 5.61182537 16.79080331 0 5 C-0.21875 2.1015625 -0.21875 2.1015625 0 0 Z " fill="#2661EF" transform="translate(422,213)"/>
<path d="M0 0 C6.93 0 13.86 0 21 0 C21 4.95 21 9.9 21 15 C19 12 19 12 17.8125 9.5625 C13.53195064 3.51068883 6.92019955 2.19259675 0 1 C0 0.67 0 0.34 0 0 Z " fill="#F3F9FD" transform="translate(633,0)"/>
<path d="M0 0 C0.66 0 1.32 0 2 0 C-0.12967505 13.64928099 -18.74370478 27.0216502 -28 36 C-28 33 -28 33 -26.47119141 31.16235352 C-25.77171387 30.49131592 -25.07223633 29.82027832 -24.3515625 29.12890625 C-23.59359375 28.38962891 -22.835625 27.65035156 -22.0546875 26.88867188 C-21.25289063 26.12103516 -20.45109375 25.35339844 -19.625 24.5625 C-18.05012124 23.04770184 -16.47962069 21.52833537 -14.9140625 20.00390625 C-13.8614624 18.99565796 -13.8614624 18.99565796 -12.78759766 17.96704102 C-11.04452637 16.04899603 -10.12190346 14.30945352 -9 12 C-8.34 11.67 -7.68 11.34 -7 11 C-5.98906028 9.27161918 -4.98137728 7.54093627 -4.01171875 5.7890625 C-2.82979444 3.69901874 -1.58784314 1.8043672 0 0 Z " fill="#2A5CE8" transform="translate(452,495)"/>
<path d="M0 0 C1.79072084 5.37216251 -1.04017689 11.81223295 -3 17 C-4.5 19.875 -4.5 19.875 -6 22 C-6.66 22 -7.32 22 -8 22 C-8.2475 22.94875 -8.495 23.8975 -8.75 24.875 C-10 28 -10 28 -12.125 29.375 C-12.74375 29.58125 -13.3625 29.7875 -14 30 C-12.34044641 25.58592961 -10.26045024 21.44590316 -8.125 17.25 C-5.25290712 11.56294447 -2.51064786 5.85817834 0 0 Z " fill="#3F5FED" transform="translate(402,429)"/>
<path d="M0 0 C1.36067544 0.00502513 2.72135267 0.00958624 4.08203125 0.01367188 C7.38806725 0.02539541 10.69401001 0.04180573 14 0.0625 C14 0.3925 14 0.7225 14 1.0625 C10.56941274 1.82331262 7.31459302 2.22242949 3.8046875 2.34375 C2.84175781 2.38113281 1.87882812 2.41851562 0.88671875 2.45703125 C-1.1288967 2.52761701 -3.14452181 2.5979274 -5.16015625 2.66796875 C-6.12050781 2.70535156 -7.08085937 2.74273437 -8.0703125 2.78125 C-9.38153076 2.82668945 -9.38153076 2.82668945 -10.71923828 2.87304688 C-13.16337527 2.98550853 -13.16337527 2.98550853 -16 4.0625 C-17.99673484 4.41486497 -19.99650739 4.75084559 -22 5.0625 C-22.33 3.7425 -22.66 2.4225 -23 1.0625 C-15.34125934 -0.17813784 -7.74288354 -0.04929358 0 0 Z " fill="#3E7DF8" transform="translate(254,179.9375)"/>
<path d="M0 0 C7.05141963 4.83920955 12.43333987 10.45733824 18.078125 16.85546875 C20.29783267 19.33233768 22.61558691 21.68182061 25 24 C26.33333333 25.33333333 27.66666667 26.66666667 29 28 C28.67 28.66 28.34 29.32 28 30 C24.00602615 26.05534383 20.01857403 22.10425446 16.03710938 18.14697266 C14.68082557 16.80076671 13.32275497 15.45635851 11.96289062 14.11376953 C10.01223399 12.18728284 8.06802606 10.25449117 6.125 8.3203125 C5.51253418 7.71816925 4.90006836 7.116026 4.26904297 6.49563599 C2.80757815 5.03456499 1.39820649 3.52171827 0 2 C0 1.34 0 0.68 0 0 Z " fill="#6D3FEB" transform="translate(44,579)"/>
<path d="M0 0 C0.66 0.33 1.32 0.66 2 1 C-4.17043262 6.53594084 -10.80561605 10.87793158 -17.9375 15.0625 C-18.77837158 15.56370361 -19.61924316 16.06490723 -20.4855957 16.58129883 C-21.68188599 17.27002075 -21.68188599 17.27002075 -22.90234375 17.97265625 C-23.61898193 18.38781494 -24.33562012 18.80297363 -25.07397461 19.23071289 C-27 20 -27 20 -30 19 C-29.37351562 18.66226563 -28.74703125 18.32453125 -28.1015625 17.9765625 C-27.28429687 17.53054688 -26.46703125 17.08453125 -25.625 16.625 C-24.81289063 16.18414063 -24.00078125 15.74328125 -23.1640625 15.2890625 C-20.89185698 14.0556107 -20.89185698 14.0556107 -19 12 C-17.7243826 11.34286376 -16.43029932 10.72100459 -15.125 10.125 C-11.75059348 8.49241843 -9.61376597 6.7008915 -7 4 C-5.02379014 2.95377125 -3.0262871 1.94560065 -1 1 C-0.67 0.67 -0.34 0.34 0 0 Z " fill="#394BE8" transform="translate(317,632)"/>
<path d="M0 0 C0.4021875 0.46921875 0.804375 0.9384375 1.21875 1.421875 C0.55875 2.081875 -0.10125 2.741875 -0.78125 3.421875 C-1.11125 2.761875 -1.44125 2.101875 -1.78125 1.421875 C-3.55242187 1.36580078 -3.55242187 1.36580078 -5.359375 1.30859375 C-6.91669788 1.24292351 -8.47398814 1.17647653 -10.03125 1.109375 C-10.80855469 1.08681641 -11.58585937 1.06425781 -12.38671875 1.04101562 C-16.72104093 0.83726544 -19.56166105 0.65011876 -22.78125 -2.578125 C-5.63297671 -4.99061972 -5.63297671 -4.99061972 0 0 Z " fill="#1860EC" transform="translate(480.78125,247.578125)"/>
<path d="M0 0 C0.66 0 1.32 0 2 0 C2.09908936 9.39146903 2.12998844 18.65741704 1 28 C-1.5847236 24.12291459 -1.62782738 21.61494043 -2 17 C-1.67 16.67 -1.34 16.34 -1 16 C-0.76321284 13.30764224 -0.57801975 10.63501844 -0.4375 7.9375 C-0.39431641 7.17888672 -0.35113281 6.42027344 -0.30664062 5.63867188 C-0.20026367 3.75934562 -0.09960066 1.87969756 0 0 Z " fill="#2E67F0" transform="translate(478,408)"/>
<path d="M0 0 C1.32 0.33 2.64 0.66 4 1 C3.938125 1.66 3.87625 2.32 3.8125 3 C4.02759141 6.44146253 5.01863729 8.97953504 6.34375 12.1328125 C7 14 7 14 7 17 C6.34 17 5.68 17 5 17 C4.67 17.66 4.34 18.32 4 19 C3.32506659 16.77332235 2.66036956 14.54354023 2 12.3125 C1.62875 11.07113281 1.2575 9.82976562 0.875 8.55078125 C0.12296543 5.4989981 -0.19034899 3.11101638 0 0 Z " fill="#8B61F1" transform="translate(2,495)"/>
<path d="M0 0 C0.99 0.33 1.98 0.66 3 1 C3 2.32 3 3.64 3 5 C3.66 5.33 4.32 5.66 5 6 C5.37890625 7.890625 5.37890625 7.890625 5.5625 10.25 C5.78367162 12.75792819 6.02204583 15.10043099 6.5625 17.5625 C7.19123429 21.06544821 7.06028386 24.44325217 7 28 C5.47777111 25.16734465 4.49432308 22.49078136 3.7109375 19.375 C3.49179687 18.50359375 3.27265625 17.6321875 3.046875 16.734375 C2.82515625 15.83203125 2.6034375 14.9296875 2.375 14 C2.14554687 13.09765625 1.91609375 12.1953125 1.6796875 11.265625 C1.463125 10.39421875 1.2465625 9.5228125 1.0234375 8.625 C0.82669434 7.83351563 0.62995117 7.04203125 0.42724609 6.2265625 C0 4 0 4 0 0 Z " fill="#165CF0" transform="translate(481,251)"/>
<path d="M0 0 C4.25980502 1.43024306 7.14638111 3.54401404 10.5625 6.4375 C13.65634065 9.04216196 16.73558104 11.61121342 20 14 C19.34 15.32 18.68 16.64 18 18 C17.34 17.34 16.68 16.68 16 16 C16 15.34 16 14.68 16 14 C15.01 13.34 14.02 12.68 13 12 C12.01 11.34 11.02 10.68 10 10 C10 9.34 10 8.68 10 8 C9.01 8 8.02 8 7 8 C5.29220027 6.37550757 3.62449243 4.70779973 2 3 C1.34 2.67 0.68 2.34 0 2 C0 1.34 0 0.68 0 0 Z " fill="#3D7EF9" transform="translate(314,197)"/>
<path d="M0 0 C0 3.69418201 -1.28179295 5.77836178 -3 9 C-3.66 9 -4.32 9 -5 9 C-5.103125 9.721875 -5.20625 10.44375 -5.3125 11.1875 C-6.30003444 15.22741361 -8.07173897 18.07173897 -11 21 C-11.66 20.34 -12.32 19.68 -13 19 C-11.40079629 16.39266788 -9.79591077 13.78914357 -8.1875 11.1875 C-7.73568359 10.44951172 -7.28386719 9.71152344 -6.81835938 8.95117188 C-6.37685547 8.23896484 -5.93535156 7.52675781 -5.48046875 6.79296875 C-4.87561646 5.81106567 -4.87561646 5.81106567 -4.25854492 4.80932617 C-2.99033193 2.98610087 -1.61604104 1.51747691 0 0 Z " fill="#694CF1" transform="translate(37,348)"/>
<path d="M0 0 C0.66 0.99 1.32 1.98 2 3 C0.54782324 4.50596108 -0.91192861 6.00462104 -2.375 7.5 C-3.18710937 8.3353125 -3.99921875 9.170625 -4.8359375 10.03125 C-7 12 -7 12 -9 12 C-9.33 13.32 -9.66 14.64 -10 16 C-10 15.01 -10 14.02 -10 13 C-10.66 12.67 -11.32 12.34 -12 12 C-8.04 8.04 -4.08 4.08 0 0 Z " fill="#4067F1" transform="translate(412,384)"/>
<path d="M0 0 C0 0.99 0 1.98 0 3 C-1.010625 3.12375 -2.02125 3.2475 -3.0625 3.375 C-6.99016367 3.90222288 -6.99016367 3.90222288 -10.625 5.125 C-13.98729999 5.99670741 -15.72644544 5.99198623 -19 5 C-16.07382565 3.0492171 -13.97955419 2.28486538 -10.625 1.375 C-9.68914063 1.11460938 -8.75328125 0.85421875 -7.7890625 0.5859375 C-5.09876365 0.02074867 -2.73855429 -0.10954217 0 0 Z " fill="#1C8EFD" transform="translate(587,3)"/>
<path d="M0 0 C0 0.33 0 0.66 0 1 C8.25 1.33 16.5 1.66 25 2 C25 2.33 25 2.66 25 3 C20.87403297 3.02492452 16.74809578 3.04296521 12.62207031 3.05493164 C11.22167191 3.05992616 9.82127863 3.06672408 8.42089844 3.07543945 C-5.898355 3.16225376 -5.898355 3.16225376 -13 2 C-13 1.67 -13 1.34 -13 1 C-8.61414671 0.29826347 -4.44209357 -0.10834375 0 0 Z " fill="#7069E8" transform="translate(197,668)"/>
<path d="M0 0 C2.46684573 1.02076375 3.81014332 1.73247468 5.375 3.9375 C7.52570125 6.66723621 9.8708493 7.52745849 13 9 C15.04556765 10.27558073 17.01535567 11.62965034 19 13 C17.02 13.99 17.02 13.99 15 15 C8.98503326 10.50337438 3.99922283 6.39875653 0 0 Z " fill="#704DEE" transform="translate(93,626)"/>
<path d="M0 0 C0.66 0.33 1.32 0.66 2 1 C-0.10125822 4.14855201 -1.95241303 5.78223533 -5.3125 7.5 C-8.11669441 8.97038116 -10.74563316 10.4593793 -13.3125 12.3125 C-16 14 -16 14 -20 14 C-20 13.34 -20 12.68 -20 12 C-19.2265625 11.63648438 -18.453125 11.27296875 -17.65625 10.8984375 C-11.2418886 7.80239672 -5.48773967 4.55159584 0 0 Z " fill="#4A4AE8" transform="translate(274,572)"/>
<path d="M0 0 C3.35447625 1.17859976 5.83924737 2.1189965 8 5 C10.12702026 9.8137827 10.17797498 13.83872547 10 19 C9.87625 18.360625 9.7525 17.72125 9.625 17.0625 C9.41875 16.381875 9.2125 15.70125 9 15 C8.34 14.67 7.68 14.34 7 14 C6.32421875 12.0390625 6.32421875 12.0390625 5.6875 9.625 C4.61731861 6.1551851 4.29340073 5.225168 1.3125 2.9375 C0.549375 2.628125 -0.21375 2.31875 -1 2 C-0.67 1.34 -0.34 0.68 0 0 Z " fill="#148AFC" transform="translate(644,4)"/>
<path d="M0 0 C0.66 0.33 1.32 0.66 2 1 C1.21496094 1.70125 0.42992187 2.4025 -0.37890625 3.125 C-6.30205968 8.45904285 -11.95545681 13.80089586 -17 20 C-17 16.36212349 -16.32111164 15.86935345 -13.9375 13.25 C-13.30199219 12.55132812 -12.66648437 11.85265625 -12.01171875 11.1328125 C-4.07072368 2.71381579 -4.07072368 2.71381579 0 0 Z " fill="#2156EB" transform="translate(384,130)"/>
<path d="M0 0 C0.66 0.33 1.32 0.66 2 1 C2 1.66 2 2.32 2 3 C1.31292969 3.26554688 0.62585938 3.53109375 -0.08203125 3.8046875 C-0.98308594 4.15789062 -1.88414062 4.51109375 -2.8125 4.875 C-3.70582031 5.22304687 -4.59914062 5.57109375 -5.51953125 5.9296875 C-8.17711591 6.98832155 -8.17711591 6.98832155 -11 9 C-13.6875 9.125 -13.6875 9.125 -16 9 C-12.82117052 6.45079375 -9.50731355 4.58846828 -5.875 2.75 C-4.82054687 2.20859375 -3.76609375 1.6671875 -2.6796875 1.109375 C-1.79539063 0.74328125 -0.91109375 0.3771875 0 0 Z " fill="#4C75F8" transform="translate(207,188)"/>
<path d="M0 0 C0.268125 0.639375 0.53625 1.27875 0.8125 1.9375 C1.88667752 4.33131686 1.88667752 4.33131686 5 5 C8 10.22222222 8 10.22222222 8 13 C7.01 13.33 6.02 13.66 5 14 C4.1533966 12.61217515 3.32324661 11.21430603 2.5 9.8125 C2.0359375 9.03519531 1.571875 8.25789062 1.09375 7.45703125 C-0.10729647 4.75896614 -0.20741043 2.9193018 0 0 Z " fill="#2C6EF3" transform="translate(422,213)"/>
<path d="M0 0 C4.51617599 -0.07654536 8.59085217 -0.10228696 13 1 C12.67 1.99 12.34 2.98 12 4 C13.32 4.33 14.64 4.66 16 5 C14.865625 4.855625 13.73125 4.71125 12.5625 4.5625 C8.04646944 3.99698633 3.52452819 3.49225191 -1 3 C-0.67 2.01 -0.34 1.02 0 0 Z " fill="#3A77F2" transform="translate(389,172)"/>
<path d="M0 0 C0.66 0.33 1.32 0.66 2 1 C-0.21484273 5.28202927 -3.43138441 6.1437948 -7.74609375 7.58203125 C-10.19156236 8.0355237 -11.663474 7.78239025 -14 7 C-11.71296692 5.80274117 -9.42115138 4.61702982 -7.125 3.4375 C-6.14853516 2.92413086 -6.14853516 2.92413086 -5.15234375 2.40039062 C-3.46470143 1.53917109 -1.73420407 0.76313297 0 0 Z " fill="#2C8AFB" transform="translate(550,14)"/>
<path d="M0 0 C2.31 0.66 4.62 1.32 7 2 C7 2.66 7 3.32 7 4 C8.918125 4.185625 8.918125 4.185625 10.875 4.375 C14.75 4.75 14.75 4.75 17 7 C10.84237788 7.32987261 6.57733135 6.73974171 1 4 C0.27734375 1.890625 0.27734375 1.890625 0 0 Z " fill="#6C58EC" transform="translate(139,654)"/>
<path d="M0 0 C0.0825 0.598125 0.165 1.19625 0.25 1.8125 C0.78239396 4.18276735 0.78239396 4.18276735 3.03125 5.0625 C5.38974173 7.38355535 5.30234349 8.02618942 5.390625 11.23046875 C5.36407407 12.88326401 5.31642461 14.53582663 5.25 16.1875 C5.23195313 17.03248047 5.21390625 17.87746094 5.1953125 18.74804688 C5.14820586 20.83251573 5.07646233 22.91640144 5 25 C4.67 25 4.34 25 4 25 C3.67 19.39 3.34 13.78 3 8 C0.525 7.01 0.525 7.01 -2 6 C-1.125 1.125 -1.125 1.125 0 0 Z " fill="#BBC3F1" transform="translate(398,399)"/>
<path d="M0 0 C1.2421875 1.546875 1.2421875 1.546875 2 4 C0.82035284 6.62012083 -0.36110729 8.83953006 -1.875 11.25 C-2.26558594 11.8996875 -2.65617188 12.549375 -3.05859375 13.21875 C-4.02477715 14.82120052 -5.01056172 16.41180293 -6 18 C-6.71484375 16.453125 -6.71484375 16.453125 -7 14 C-5.94608774 11.46142115 -4.86034426 9.15504473 -3.5625 6.75 C-3.22412109 6.1003125 -2.88574219 5.450625 -2.53710938 4.78125 C-1.70213113 3.18185506 -0.85246886 1.59014141 0 0 Z " fill="#208BFC" transform="translate(635,118)"/>
<path d="M0 0 C1.5625 1.6875 1.5625 1.6875 3 4 C2.78515625 6.38671875 2.78515625 6.38671875 2 9 C1.75121094 9.95519531 1.50242187 10.91039063 1.24609375 11.89453125 C0.97925781 12.85746094 0.71242188 13.82039063 0.4375 14.8125 C0.03337891 16.27623047 0.03337891 16.27623047 -0.37890625 17.76953125 C-0.58386719 18.50558594 -0.78882813 19.24164063 -1 20 C-1.33 20 -1.66 20 -2 20 C-2.31620422 13.20160929 -1.12676382 6.69016016 0 0 Z " fill="#2A95FD" transform="translate(651,70)"/>
<path d="M0 0 C0.99 0 1.98 0 3 0 C2.88557539 1.60495567 2.75805306 3.20898119 2.625 4.8125 C2.55539063 5.70582031 2.48578125 6.59914063 2.4140625 7.51953125 C2 10 2 10 0 13 C-2.58772586 9.1184112 -1.87719799 7.46573523 -1 3 C-0.67 2.01 -0.34 1.02 0 0 Z " fill="#7E56F4" transform="translate(6,410)"/>
<path d="M0 0 C1.23891889 3.71675668 0.19552843 4.98384848 -1.23046875 8.4609375 C-2.75303581 13.48463591 -2.76934349 18.78239064 -3 24 C-3.33 24 -3.66 24 -4 24 C-5.58237906 9.97242346 -5.58237906 9.97242346 -3 3 C-1.375 1 -1.375 1 0 0 Z " fill="#348FFB" transform="translate(527,83)"/>
<path d="M0 0 C0.66 0.66 1.32 1.32 2 2 C-3.94 7.445 -3.94 7.445 -10 13 C-10.66 12.67 -11.32 12.34 -12 12 C-8.04 8.04 -4.08 4.08 0 0 Z " fill="#2592FC" transform="translate(368,322)"/>
<path d="M0 0 C0.99 0.33 1.98 0.66 3 1 C2.06725891 2.12894876 1.12859878 3.25300876 0.1875 4.375 C-0.33457031 5.00148438 -0.85664062 5.62796875 -1.39453125 6.2734375 C-3 8 -3 8 -6 10 C-6.33 9.34 -6.66 8.68 -7 8 C-6.67 7.34 -6.34 6.68 -6 6 C-5.34 6 -4.68 6 -4 6 C-3.71125 5.38125 -3.4225 4.7625 -3.125 4.125 C-2 2 -2 2 0 0 Z " fill="#3377F3" transform="translate(523,286)"/>
<path d="M0 0 C0.495 0.391875 0.99 0.78375 1.5 1.1875 C-1.78463659 3.37725773 -4.70696275 4.18556563 -8.5 5.1875 C-8.5 4.5275 -8.5 3.8675 -8.5 3.1875 C-9.16 2.8575 -9.82 2.5275 -10.5 2.1875 C-3.28774617 -1.06851751 -3.28774617 -1.06851751 0 0 Z " fill="#2E93FB" transform="translate(567.5,8.8125)"/>
<path d="M0 0 C9.41002278 -0.18451025 9.41002278 -0.18451025 14 1 C12.625 2.5 12.625 2.5 11 4 C10.34 4 9.68 4 9 4 C9 3.34 9 2.68 9 2 C7.329375 2.2784375 7.329375 2.2784375 5.625 2.5625 C2 3 2 3 0 2 C0 1.34 0 0.68 0 0 Z " fill="#2A99FD" transform="translate(624,0)"/>
<path d="M0 0 C5.47035213 3.79037089 9.89962427 7.75027653 14 13 C13.67 13.66 13.34 14.32 13 15 C10.82722286 12.88094537 8.66173092 10.75527122 6.5 8.625 C5.87996094 8.02171875 5.25992188 7.4184375 4.62109375 6.796875 C4.03457031 6.21679688 3.44804688 5.63671875 2.84375 5.0390625 C2.29912109 4.50490723 1.75449219 3.97075195 1.19335938 3.42041016 C0 2 0 2 0 0 Z " fill="#6439E6" transform="translate(59,594)"/>
<path d="M0 0 C2.7322378 4.09835671 5.22397726 7.89461377 4.6875 12.9375 C4.460625 13.618125 4.23375 14.29875 4 15 C-0.05979452 10.58717987 0 5.77267265 0 0 Z " fill="#8357F2" transform="translate(13,525)"/>
<path d="M0 0 C1.48831242 0.00667405 2.97660807 0.01863442 4.46484375 0.03515625 C5.22345703 0.03966797 5.98207031 0.04417969 6.76367188 0.04882812 C8.64326246 0.06064945 10.52281274 0.07858547 12.40234375 0.09765625 C12.40234375 0.42765625 12.40234375 0.75765625 12.40234375 1.09765625 C10.32192212 1.4884869 8.23782036 1.85976495 6.15234375 2.22265625 C4.41210938 2.53589844 4.41210938 2.53589844 2.63671875 2.85546875 C-0.63319941 3.10031769 -1.92258459 2.88545166 -4.59765625 1.09765625 C-3.59765625 0.09765625 -3.59765625 0.09765625 0 0 Z " fill="#EDF6FB" transform="translate(584.59765625,-0.09765625)"/>
<path d="M0 0 C0.66 0.99 1.32 1.98 2 3 C1.5390625 5.26171875 1.5390625 5.26171875 0.625 7.6875 C0.32851563 8.49574219 0.03203125 9.30398438 -0.2734375 10.13671875 C-0.51320313 10.75160156 -0.75296875 11.36648438 -1 12 C-1.33 11.34 -1.66 10.68 -2 10 C-2.66 10 -3.32 10 -4 10 C-2.8905928 6.51329166 -1.73662334 3.22515763 0 0 Z " fill="#7556F4" transform="translate(20,374)"/>
<path d="M0 0 C2.625 0.9375 2.625 0.9375 5 2 C5 2.66 5 3.32 5 4 C5.99 4 6.98 4 8 4 C8 4.99 8 5.98 8 7 C4.00499382 5.6302836 1.19990508 3.74277578 -2 1 C-1.34 0.67 -0.68 0.34 0 0 Z " fill="#7056EA" transform="translate(113,641)"/>
<path d="M0 0 C1.02328619 3.19411474 0.96256253 5.4215884 0.25 8.6875 C0.09015625 9.47511719 -0.0696875 10.26273437 -0.234375 11.07421875 C-0.61335937 12.02748047 -0.61335937 12.02748047 -1 13 C-1.99 13.33 -2.98 13.66 -4 14 C-3.8864371 12.35333797 -3.75882619 10.70763918 -3.625 9.0625 C-3.55539063 8.14597656 -3.48578125 7.22945313 -3.4140625 6.28515625 C-3.27742187 5.53105469 -3.14078125 4.77695312 -3 4 C-2.34 3.67 -1.68 3.34 -1 3 C-0.67 2.01 -0.34 1.02 0 0 Z " fill="#7950F1" transform="translate(4,430)"/>
<path d="M0 0 C1.79133978 -0.05391993 3.58313899 -0.09275571 5.375 -0.125 C6.37273437 -0.14820313 7.37046875 -0.17140625 8.3984375 -0.1953125 C11 0 11 0 13 2 C11.58696762 2.2506019 10.16920526 2.47461921 8.75 2.6875 C7.96109375 2.81511719 7.1721875 2.94273437 6.359375 3.07421875 C3.37172981 2.98023653 2.19073117 1.95457437 0 0 Z " fill="#2867ED" transform="translate(458,245)"/>
<path d="M0 0 C-3 2 -3 2 -6 2 C-6 2.66 -6 3.32 -6 4 C-8.64 4.33 -11.28 4.66 -14 5 C-12.68 4.34 -11.36 3.68 -10 3 C-10 2.34 -10 1.68 -10 1 C-8.71073008 0.63720544 -7.41846728 0.28503302 -6.125 -0.0625 C-5.40570313 -0.25972656 -4.68640625 -0.45695313 -3.9453125 -0.66015625 C-2 -1 -2 -1 0 0 Z " fill="#3C46E9" transform="translate(284,654)"/>
<path d="M0 0 C2.46313739 1.82748903 3.83428618 3.22976216 4.48828125 6.26953125 C4.72518293 8.51479346 4.90361349 10.74455578 5 13 C4.34 13 3.68 13 3 13 C2.49242138 11.58603098 1.99425075 10.16868271 1.5 8.75 C1.08234375 7.56664062 1.08234375 7.56664062 0.65625 6.359375 C0 4 0 4 0 0 Z " fill="#6D3AEB" transform="translate(9,518)"/>
<path d="M0 0 C3 2 3 2 3.6875 5.125 C3.8421875 6.548125 3.8421875 6.548125 4 8 C3.34 8 2.68 8 2 8 C1.67 8.66 1.34 9.32 1 10 C-0.1577506 6.52674819 -0.06866652 3.63932552 0 0 Z " fill="#7F50F1" transform="translate(5,504)"/>
<path d="M0 0 C0.66 0.33 1.32 0.66 2 1 C-3.94 4.465 -3.94 4.465 -10 8 C-10 7.01 -10 6.02 -10 5 C-3.375 1.125 -3.375 1.125 0 0 Z " fill="#4769F5" transform="translate(232,263)"/>
<path d="M0 0 C-0.969375 0.268125 -1.93875 0.53625 -2.9375 0.8125 C-3.948125 1.204375 -4.95875 1.59625 -6 2 C-6.33 2.99 -6.66 3.98 -7 5 C-7.99 5.33 -8.98 5.66 -10 6 C-10.66 5.34 -11.32 4.68 -12 4 C-4.17391304 -1.39130435 -4.17391304 -1.39130435 0 0 Z " fill="#1C63F1" transform="translate(411,116)"/>
<path d="M0 0 C-1.45255699 3.82946843 -3.42895561 5.12050295 -7 7 C-7 4 -7 4 -5.1875 1.8125 C-3 0 -3 0 0 0 Z " fill="#4A5BEB" transform="translate(342,507)"/>
<path d="M0 0 C3.97497544 3.40712181 5.86793788 7.32760855 8 12 C4.91371864 10.97123955 4.00415838 10.43984498 2 8 C0.60359014 5.06018976 0 3.27763744 0 0 Z " fill="#7148F0" transform="translate(84,507)"/>
<path d="M0 0 C0.99 0.33 1.98 0.66 3 1 C1.02 3.31 -0.96 5.62 -3 8 C-3.33 6.68 -3.66 5.36 -4 4 C-2.0625 1.75 -2.0625 1.75 0 0 Z " fill="#5C71F5" transform="translate(196,291)"/>
<path d="M0 0 C0.99 0.495 0.99 0.495 2 1 C2 1.66 2 2.32 2 3 C2.99 3.33 3.98 3.66 5 4 C6.1875 6.5625 6.1875 6.5625 7 9 C6.01 9 5.02 9 4 9 C0 3.85714286 0 3.85714286 0 0 Z " fill="#7848ED" transform="translate(26,555)"/>
<path d="M0 0 C3 1 3 1 4.25 2.8125 C5.11637742 5.33943414 4.88492145 6.52221994 4 9 C1.18167487 7.59083743 0.97406539 5.92219617 0 3 C0 2.01 0 1.02 0 0 Z " fill="#753FF1" transform="translate(17,538)"/>
<path d="M0 0 C0.33 0 0.66 0 1 0 C1.43177893 6.26079448 0.92739438 9.09075703 -3 14 C-4 12 -4 12 -3.22265625 9.1796875 C-2.83980469 8.08914063 -2.45695312 6.99859375 -2.0625 5.875 C-1.68222656 4.77929688 -1.30195313 3.68359375 -0.91015625 2.5546875 C-0.60980469 1.71164062 -0.30945313 0.86859375 0 0 Z " fill="#DDE7FC" transform="translate(474,453)"/>
<path d="M0 0 C0.66 0.66 1.32 1.32 2 2 C-0.31 4.64 -2.62 7.28 -5 10 C-5.99 9.67 -6.98 9.34 -8 9 C-7.50628906 8.51789063 -7.01257813 8.03578125 -6.50390625 7.5390625 C-5.86324219 6.90742188 -5.22257812 6.27578125 -4.5625 5.625 C-3.92441406 4.99851562 -3.28632813 4.37203125 -2.62890625 3.7265625 C-0.92117824 2.08276939 -0.92117824 2.08276939 0 0 Z " fill="#E0F2FE" transform="translate(442,282)"/>
<path d="M0 0 C0.99 0 1.98 0 3 0 C1.55746343 3.36591866 -0.33264727 5.51047079 -3 8 C-3.66 7.67 -4.32 7.34 -5 7 C-4.24172908 5.82512964 -3.46792245 4.66027408 -2.6875 3.5 C-2.25824219 2.8503125 -1.82898438 2.200625 -1.38671875 1.53125 C-0.70029297 0.77328125 -0.70029297 0.77328125 0 0 Z " fill="#3369F1" transform="translate(365,149)"/>
<path d="M0 0 C2.64 0.99 5.28 1.98 8 3 C7.01 3.66 6.02 4.32 5 5 C1.3125 4.125 1.3125 4.125 -2 3 C-1.34 2.67 -0.68 2.34 0 2 C0 1.34 0 0.68 0 0 Z " fill="#765CEB" transform="translate(128,649)"/>
<path d="M0 0 C3.37503669 1.1858237 5.64722731 2.27573689 8 5 C7.67 5.66 7.34 6.32 7 7 C4.36 5.35 1.72 3.7 -1 2 C-0.67 1.34 -0.34 0.68 0 0 Z " fill="#2799FD" transform="translate(644,4)"/>
<path d="M0 0 C3 1 3 1 4.1875 2.75 C5.10819096 5.29960574 5.14948718 7.30923081 5 10 C3 9 3 9 2.1484375 6.93359375 C1.89320313 6.10988281 1.63796875 5.28617187 1.375 4.4375 C1.11460937 3.61121094 0.85421875 2.78492188 0.5859375 1.93359375 C0.39257812 1.29550781 0.19921875 0.65742188 0 0 Z " fill="#2A62F0" transform="translate(466,359)"/>
<path d="M0 0 C4.455 0.99 4.455 0.99 9 2 C9 2.99 9 3.98 9 5 C6.03 4.01 3.06 3.02 0 2 C0 1.34 0 0.68 0 0 Z " fill="#4670F0" transform="translate(267,262)"/>
<path d="M0 0 C0 3.99904969 -1.72586967 5.80200422 -4 9 C-4.99 8.34 -5.98 7.68 -7 7 C-4.69 4.69 -2.38 2.38 0 0 Z " fill="#2891FA" transform="translate(364,255)"/>
<path d="M0 0 C0.33 0 0.66 0 1 0 C1.19294408 4.82360189 0.75747614 8.49646738 -1 13 C-1.33 13 -1.66 13 -2 13 C-2.16682272 8.07872966 -2.24828052 4.49656104 0 0 Z " fill="#1263F1" transform="translate(548,237)"/>
<path d="M0 0 C0.33 0 0.66 0 1 0 C1 2.64 1 5.28 1 8 C-0.98 8.99 -0.98 8.99 -3 10 C-2.69201674 8.51988629 -2.378482 7.04092675 -2.0625 5.5625 C-1.88847656 4.73878906 -1.71445312 3.91507812 -1.53515625 3.06640625 C-1 1 -1 1 0 0 Z " fill="#D8EFFE" transform="translate(653,78)"/>
<path d="M0 0 C0 0.66 0 1.32 0 2 C-6.625 3.25 -6.625 3.25 -10 1 C-3.71428571 -1.42857143 -3.71428571 -1.42857143 0 0 Z " fill="#3797FC" transform="translate(578,6)"/>
<path d="M0 0 C0.66 0.33 1.32 0.66 2 1 C1.67 4.3 1.34 7.6 1 11 C0.67 11 0.34 11 0 11 C-0.19406478 9.35492782 -0.38007935 7.70890406 -0.5625 6.0625 C-0.66691406 5.14597656 -0.77132812 4.22945313 -0.87890625 3.28515625 C-0.91886719 2.53105469 -0.95882812 1.77695312 -1 1 C-0.67 0.67 -0.34 0.34 0 0 Z " fill="#7D60EE" transform="translate(76,434)"/>
<path d="M0 0 C1.26724763 3.80174289 0.4750819 5.3511132 -1 9 C-1.66 9.66 -2.32 10.32 -3 11 C-2.25 3.375 -2.25 3.375 0 0 Z " fill="#3255ED" transform="translate(402,429)"/>
<path d="M0 0 C-1.39332574 3.36720387 -2.9789286 4.9859524 -6 7 C-6 5.68 -6 4.36 -6 3 C-2.78571429 0 -2.78571429 0 0 0 Z " fill="#5C75F6" transform="translate(216,274)"/>
<path d="M0 0 C0.99 0.33 1.98 0.66 3 1 C1.35 2.65 -0.3 4.3 -2 6 C-2.66 5.67 -3.32 5.34 -4 5 C-2.68 3.35 -1.36 1.7 0 0 Z " fill="#4752EB" transform="translate(315,531)"/>
<path d="M0 0 C0.66 0.33 1.32 0.66 2 1 C1.67 1.99 1.34 2.98 1 4 C-2.63 4 -6.26 4 -10 4 C-10 3.67 -10 3.34 -10 3 C-8.72125 2.87625 -7.4425 2.7525 -6.125 2.625 C-2.65209064 2.30957601 -2.65209064 2.30957601 0 0 Z " fill="#EDF3FC" transform="translate(450,103)"/>
<path d="M0 0 C0.66 0.33 1.32 0.66 2 1 C1.34 2.32 0.68 3.64 0 5 C-0.99 4.67 -1.98 4.34 -3 4 C-2.01 2.68 -1.02 1.36 0 0 Z M-3 5 C-2.67 5.66 -2.34 6.32 -2 7 C-2.66 6.67 -3.32 6.34 -4 6 C-3.67 5.67 -3.34 5.34 -3 5 Z " fill="#2C86F8" transform="translate(500,46)"/>
<path d="M0 0 C-0.33 0.99 -0.66 1.98 -1 3 C-2.65 3.33 -4.3 3.66 -6 4 C-6.33 3.01 -6.66 2.02 -7 1 C-4 0 -4 0 0 0 Z " fill="#218AFD" transform="translate(559,12)"/>
<path d="M0 0 C4.875 4.75 4.875 4.75 6 7 C5.34 7.66 4.68 8.32 4 9 C0 2.25 0 2.25 0 0 Z " fill="#7D57F1" transform="translate(92,520)"/>
<path d="M0 0 C0.66 0.33 1.32 0.66 2 1 C0.02 3.31 -1.96 5.62 -4 8 C-4.66 7.67 -5.32 7.34 -6 7 C-4.02 4.69 -2.04 2.38 0 0 Z " fill="#1F88FA" transform="translate(293,333)"/>
<path d="M0 0 C0 0.66 0 1.32 0 2 C-2.3125 4.1875 -2.3125 4.1875 -5 6 C-5.99 5.67 -6.98 5.34 -8 5 C-5.81209839 1.71814759 -4.05191042 0 0 0 Z " fill="#1F62F0" transform="translate(517,295)"/>
<path d="M0 0 C0.33 0.66 0.66 1.32 1 2 C-0.98 4.31 -2.96 6.62 -5 9 C-5 5.84012675 -4.61785127 4.63965207 -3 2 C-2.01 1.34 -1.02 0.68 0 0 Z " fill="#1B66F1" transform="translate(531,278)"/>
<path d="M0 0 C1.4070473 2.6264883 2.62816493 5.02531947 3 8 C2.0625 10.25 2.0625 10.25 1 12 C0.01751476 7.9472484 -0.08159574 4.16138263 0 0 Z " fill="#4678F5" transform="translate(417,194)"/>
<path d="M0 0 C0.66 1.32 1.32 2.64 2 4 C2.66 4 3.32 4 4 4 C4 5.32 4 6.64 4 8 C3.01 7.67 2.02 7.34 1 7 C0.67 4.69 0.34 2.38 0 0 Z " fill="#2D66F0" transform="translate(354,165)"/>
<path d="M0 0 C0.66 0.33 1.32 0.66 2 1 C1.01 3.97 0.02 6.94 -1 10 C-2.10191901 5.59232396 -1.58706842 4.1077065 0 0 Z " fill="#2A94FC" transform="translate(639,110)"/>
<path d="M0 0 C0.66 0.99 1.32 1.98 2 3 C0.625 6.6875 0.625 6.6875 -1 10 C-1.66 9.34 -2.32 8.68 -3 8 C-2.01 5.36 -1.02 2.72 0 0 Z " fill="#6951F4" transform="translate(84,411)"/>
<path d="M0 0 C0.33 0.66 0.66 1.32 1 2 C-0.32 3.65 -1.64 5.3 -3 7 C-3.99 6.67 -4.98 6.34 -6 6 C-4.02 4.02 -2.04 2.04 0 0 Z " fill="#3095FB" transform="translate(355,335)"/>
<path d="M0 0 C0 0.99 0 1.98 0 3 C-3.4352048 5.29013653 -4.985331 5.17842973 -9 5 C-8.443125 4.731875 -7.88625 4.46375 -7.3125 4.1875 C-4.80287477 2.89877353 -2.40665764 1.47073522 0 0 Z " fill="#DBE9FD" transform="translate(500,308)"/>
<path d="M0 0 C0.33 0 0.66 0 1 0 C1.33 2.64 1.66 5.28 2 8 C0.68 8.33 -0.64 8.66 -2 9 C-1.34 6.03 -0.68 3.06 0 0 Z " fill="#2697FE" transform="translate(402,242)"/>
<path d="M0 0 C0.66 0.99 1.32 1.98 2 3 C0.35 3.66 -1.3 4.32 -3 5 C-3.66 4.34 -4.32 3.68 -5 3 C-3.35 2.01 -1.7 1.02 0 0 Z " fill="#2787FB" transform="translate(528,26)"/>
</svg>
